<svg xmlns="http://www.w3.org/2000/svg" width="797.0197" height="939.9033" viewBox="0 0 747.206 881.1594"><path d="m 727.04109,321.00715 c -1.01133,-22.2493 -1.01133,-43.48727 -1.01133,-64.72524 0,-17.19264 -13.14731,-30.33996 -30.33996,-30.33996 -126.41648,0 -222.49301,-36.40795 -302.38823,-114.2805 -12.13598,-11.12466 -30.33996,-11.12466 -42.47594,0 -79.89522,77.87255 -175.97175,114.2805 -302.388236,114.2805 -17.192642,0 -30.339957,13.14732 -30.339957,30.33996 0,21.23797 0,42.47594 -1.011332,64.72524 -4.045327,212.3797 -10.1133193,503.64328 344.864175,626.01444 l 10.11332,2.02266 10.11332,-2.02266 C 736.14308,824.65043 731.08642,534.39818 727.04109,321.00715 Z" fill="#f9a825" transform="translate(1.5558 -85.6014)"/><g fill="#fff"><path d="m 31.707,33.07 c -0.87,0.027 -1.74,0.042 -2.606,0.042 -0.869,0 -1.742,-0.014 -2.614,-0.042 C 19.146,32.869 13.296,31.832 9.084,30.353 7.104,29.685 5.409,28.899 4.1,28 l 0,7.111 0,0.5 0,0.5 0,1.289 c 2.846,2.971 12.394,5.711 25,5.711 12.606,0 22.154,-2.74 25,-5.711 l 0,-1.289 0,-0.5 0,-0.5 0,-7.111 c -1.318,0.905 -3.028,1.697 -5.025,2.367 -4.21,1.472 -10.048,2.503 -17.368,2.703 z" transform="matrix(7.86831 0 0 7.86831 144.635 211.6078)"/><path d="m 4.1,14.889 0,7.111 0,0.5 0,0.5 0,1.289 c 2.638,2.754 11.033,5.31 22.286,5.668 0.115,0.004 0.233,0.005 0.349,0.008 0.326,0.009 0.651,0.018 0.982,0.023 0.457,0.008 0.918,0.012 1.383,0.012 0.465,0 0.926,-0.004 1.383,-0.011 0.33,-0.005 0.656,-0.014 0.982,-0.023 0.116,-0.003 0.234,-0.005 0.349,-0.008 C 43.067,29.599 51.462,27.043 54.1,24.29 l 0,-1.29 0,-0.5 0,-0.5 0,-7.111 C 49.233,18.232 38.944,20 29.1,20 19.256,20 8.968,18.232 4.1,14.889 Z" transform="matrix(7.86831 0 0 7.86831 144.635 211.6078)"/><path d="M 53.965,8.542 C 52.843,4.241 44.215,0 29.1,0 14.023,0 5.404,4.22 4.247,8.51 4.162,8.657 4.1,8.818 4.1,9 l 0,0.5 0,1.806 C 6.937,14.267 16.417,17 29.1,17 c 12.683,0 22.164,-2.733 25,-5.694 l 0,-1.806 0,-0.5 c 0,-0.168 -0.056,-0.319 -0.135,-0.458 z" transform="matrix(7.86831 0 0 7.86831 144.635 211.6078)"/><path d="m 4.1,41 0,8.201 c 0,0.162 0.043,0.315 0.117,0.451 1.181,4.895 11.747,8.549 24.883,8.549 13.106,0 23.655,-3.639 24.875,-8.516 0.08,-0.144 0.125,-0.309 0.125,-0.484 l 0,-8.199 c -4.135,2.911 -12.655,5.199 -25,5.199 -12.346,0 -20.866,-2.29 -25,-5.201 z" transform="matrix(7.86831 0 0 7.86831 144.635 211.6078)"/></g></svg>